<svg width="468" height="127" viewBox="0 0 468 127" fill="none" xmlns="http://www.w3.org/2000/svg">
<path d="M215.295 40.2013L209.314 36.4067L162.867 109.556L168.848 113.35L215.295 40.2013Z" fill="white"/>
<path d="M210.684 17.1466L204.703 13.3521L158.256 86.5011L164.237 90.2952L210.684 17.1466Z" fill="white"/>
<path d="M52.6709 56.7225C52.6709 59.5908 52.0146 62.2241 50.702 64.6223C49.3887 66.9731 47.3727 68.8774 44.6541 70.3353C41.9355 71.7932 38.5601 72.5221 34.5278 72.5221H27.0736V90.2972H15.0488V40.7817H34.5278C38.4662 40.7817 41.7947 41.4636 44.5133 42.8273C47.2319 44.191 49.2714 46.0718 50.6316 48.4697C51.9907 50.8683 52.6705 53.6193 52.6709 56.7225ZM33.6137 62.9298C35.9107 62.9298 37.6218 62.389 38.747 61.3074C39.8722 60.2258 40.4349 58.6975 40.4349 56.7225C40.4349 54.7483 39.8722 53.2201 38.747 52.1377C37.6218 51.0553 35.9107 50.5145 33.6137 50.5152H27.0736V62.9298H33.6137Z" fill="white"/>
<path d="M52.6709 70.4396C52.6709 66.3901 53.4226 62.8358 54.926 59.7769C56.476 56.7161 58.5665 54.362 61.1974 52.7145C63.8283 51.067 66.7646 50.2431 70.0061 50.2427C72.7777 50.2427 75.197 50.8076 77.264 51.9373C79.3787 53.0674 80.9995 54.5499 82.1263 56.3848V50.8055H94.1765V90.214H82.1263V84.6346C80.9506 86.4707 79.3065 87.9532 77.194 89.0822C75.1267 90.2123 72.7072 90.7774 69.9355 90.7774C66.741 90.7774 63.8283 89.9534 61.1974 88.3056C58.5669 86.6102 56.4764 84.2325 54.926 81.1724C53.423 78.0683 52.6713 74.4907 52.6709 70.4396ZM82.1263 70.5097C82.1263 67.4961 81.2807 65.1183 79.5896 63.3766C77.9448 61.6352 75.9246 60.7641 73.5292 60.7634C71.1338 60.7626 69.0904 61.6337 67.3989 63.3766C65.7548 65.072 64.9326 67.4263 64.9322 70.4396C64.9318 73.4529 65.754 75.854 67.3989 77.6429C69.0896 79.385 71.1331 80.2559 73.5292 80.2555C75.9254 80.2552 77.9455 79.3843 79.5896 77.6429C81.2811 75.9011 82.1267 73.5234 82.1263 70.5097Z" fill="white"/>
<path d="M111.026 57.4799C112.429 55.3146 114.183 53.6207 116.287 52.3982C118.391 51.1278 120.73 50.4927 123.303 50.4927V63.2677H120.005C117.013 63.2677 114.768 63.9264 113.271 65.2438C111.774 66.5138 111.026 68.7724 111.026 72.0197V90.2992H99.0303V50.9161H111.026V57.4799Z" fill="white"/>
<path d="M123.061 70.6905C123.061 66.6411 123.812 63.087 125.316 60.0282C126.866 56.9676 128.956 54.6135 131.587 52.9661C134.217 51.3187 137.154 50.4942 140.397 50.4927C143.168 50.4927 145.587 51.0575 147.654 52.1872C149.768 53.3173 151.389 54.7998 152.517 56.6346V51.0571H164.566V90.464H152.514V84.8849C151.338 86.7209 149.694 88.2033 147.581 89.3322C145.514 90.4623 143.095 91.0274 140.323 91.0274C137.128 91.0274 134.216 90.2035 131.585 88.5557C128.955 86.8604 126.864 84.4827 125.314 81.4228C123.812 78.3188 123.061 74.7413 123.061 70.6905ZM152.516 70.7606C152.516 67.747 151.67 65.3694 149.979 63.6277C148.335 61.8864 146.315 61.0154 143.919 61.0146C141.522 61.0139 139.479 61.8849 137.788 63.6277C136.144 65.3231 135.322 67.6773 135.322 70.6905C135.321 73.7036 136.143 76.1046 137.788 77.8934C139.479 79.6355 141.522 80.5064 143.919 80.506C146.315 80.5056 148.335 79.6348 149.979 77.8934C151.669 76.1518 152.514 73.7741 152.514 70.7606H152.516Z" fill="white"/>
<path d="M240.053 69.8735C240.05 71.0535 239.979 72.2323 239.841 73.4042H212.5C212.69 75.8523 213.467 77.7354 214.832 79.0535C216.244 80.3241 217.963 80.9596 219.989 80.96C223.003 80.96 225.099 79.6888 226.277 77.1465H239.135C238.483 79.7209 237.251 82.1122 235.532 84.1372C233.836 86.209 231.693 87.8333 229.103 89.01C226.512 90.1867 223.616 90.7758 220.413 90.7774C216.55 90.7774 213.112 89.9535 210.098 88.3059C207.084 86.6583 204.729 84.3039 203.033 81.2427C201.337 78.1824 200.489 74.6045 200.489 70.5092C200.49 66.4138 201.314 62.8362 202.962 59.7762C204.658 56.7158 207.013 54.362 210.027 52.7147C213.042 51.0674 216.504 50.2434 220.413 50.2427C224.228 50.2427 227.619 51.0431 230.586 52.644C233.554 54.2449 235.861 56.528 237.51 59.4934C239.206 62.4591 240.053 65.9192 240.053 69.8735ZM227.689 66.6962C227.689 64.6252 226.983 62.9774 225.57 61.7527C224.158 60.5281 222.392 59.9162 220.272 59.917C218.246 59.917 216.527 60.5061 215.114 61.6843C213.748 62.8626 212.9 64.5349 212.571 66.7014L227.689 66.6962Z" fill="white"/>
<path d="M254.373 38.3521V90.2947H242.237V38.3521H254.373Z" fill="white"/>
<path d="M257.286 65.6896C257.286 60.8173 258.342 56.484 260.455 52.6897C262.567 48.8481 265.501 45.8734 269.256 43.7655C273.058 41.6097 277.353 40.5317 282.141 40.5317C288.009 40.5317 293.031 42.0775 297.209 45.1691C301.386 48.2607 304.179 52.4769 305.588 57.8178H292.351C291.365 55.7569 289.957 54.1873 288.126 53.1089C286.342 52.031 284.301 51.4922 282.001 51.4926C278.292 51.4926 275.287 52.7808 272.988 55.3573C270.688 57.9337 269.538 61.3769 269.538 65.6867C269.538 69.9985 270.688 73.4418 272.988 76.0167C275.287 78.5917 278.292 79.8799 282.001 79.8814C284.3 79.8814 286.342 79.3426 288.126 78.2651C289.957 77.1879 291.365 75.6183 292.351 73.5562H305.588C304.179 78.8971 301.386 83.1143 297.209 86.2077C293.032 89.2524 288.009 90.775 282.141 90.7753C277.353 90.7753 273.058 89.7214 269.256 87.6136C265.501 85.4577 262.567 82.4828 260.455 78.6889C258.342 74.8949 257.286 70.5618 257.286 65.6896Z" fill="white"/>
<path d="M333.38 50.706C337.886 50.706 341.5 52.2034 344.223 55.1984C346.946 58.1453 348.307 62.2164 348.307 67.4117V90.2947H336.337V69.0269C336.337 66.4064 335.657 64.3707 334.295 62.9199C332.934 61.4691 331.103 60.7437 328.803 60.7437C326.503 60.7437 324.673 61.4691 323.311 62.9199C321.95 64.3707 321.269 66.4064 321.269 69.0269V90.2947H309.229V38.3521H321.269V56.3924C322.489 54.6613 324.156 53.2808 326.268 52.2508C328.381 51.2209 330.752 50.706 333.38 50.706Z" fill="white"/>
<path d="M350.249 70.4399C350.249 66.3904 351.001 62.8362 352.504 59.7774C354.055 56.7166 356.145 54.3625 358.776 52.715C361.406 51.0675 364.343 50.2434 367.584 50.2427C370.356 50.2427 372.775 50.8077 374.842 51.9378C376.956 53.068 378.577 54.5504 379.705 56.3853V50.806H391.755V90.2134H379.704V84.6347C378.528 86.4707 376.884 87.9532 374.771 89.0822C372.704 90.2115 370.285 90.7766 367.513 90.7774C364.318 90.7774 361.405 89.9534 358.775 88.3056C356.144 86.6102 354.053 84.2326 352.503 81.1725C351 78.0662 350.249 74.4886 350.249 70.4399ZM379.705 70.51C379.705 67.4964 378.859 65.1187 377.168 63.377C375.524 61.6356 373.504 60.7645 371.108 60.7638C368.711 60.763 366.668 61.6341 364.977 63.377C363.333 65.0723 362.51 67.4266 362.51 70.4399C362.51 73.4531 363.333 75.8542 364.977 77.6431C366.669 79.3852 368.712 80.2561 371.108 80.2557C373.503 80.2553 375.523 79.3844 377.168 77.6431C378.858 75.9013 379.704 73.5237 379.704 70.51H379.705Z" fill="white"/>
<path d="M402.833 46.8047C400.717 46.8047 398.977 46.1927 397.613 44.9686C396.297 43.6982 395.639 42.1448 395.639 40.3085C395.639 38.4262 396.297 36.873 397.614 35.6489C398.978 34.3777 400.717 33.7423 402.834 33.7427C404.903 33.7427 406.596 34.3781 407.913 35.6489C409.277 36.873 409.959 38.4262 409.959 40.3085C409.959 42.1448 409.277 43.6982 407.913 44.9686C406.596 46.1927 404.902 46.8047 402.833 46.8047ZM408.829 50.8994V90.2971H396.766V50.8994H408.829Z" fill="white"/>
<path d="M437.783 50.4927C442.383 50.4927 446.045 51.9984 448.767 55.0098C451.536 57.9729 452.921 62.0664 452.921 67.2903V90.2992H440.951V68.9144C440.951 66.2794 440.271 64.2326 438.91 62.7738C437.549 61.315 435.718 60.5856 433.417 60.5856C431.118 60.5856 429.287 61.315 427.925 62.7738C426.563 64.2326 425.883 66.2794 425.883 68.9144V90.2992H413.843V50.9161H425.883V56.1392C427.104 54.3985 428.747 53.034 430.812 52.0455C432.877 51.0103 435.201 50.4927 437.783 50.4927Z" fill="white"/>
</svg>
